M48
; DRILL file {KiCad 7.0.10} date lun 29 gen 2024, 12:38:07
; FORMAT={-:-/ absolute / inch / decimal}
; #@! TF.CreationDate,2024-01-29T12:38:07+01:00
; #@! TF.GenerationSoftware,Kicad,Pcbnew,7.0.10
; #@! TF.FileFunction,Plated,1,2,PTH
FMAT,2
INCH
; #@! TA.AperFunction,Plated,PTH,ComponentDrill
T1C0.0236
; #@! TA.AperFunction,Plated,PTH,ComponentDrill
T2C0.0295
; #@! TA.AperFunction,Plated,PTH,ComponentDrill
T3C0.0315
; #@! TA.AperFunction,Plated,PTH,ComponentDrill
T4C0.0433
; #@! TA.AperFunction,Plated,PTH,ComponentDrill
T5C0.0472
; #@! TA.AperFunction,Plated,PTH,ComponentDrill
T6C0.0512
; #@! TA.AperFunction,Plated,PTH,ComponentDrill
T7C0.0630
%
G90
G05
T1
X4.4963Y-3.475
X4.575Y-3.475
X4.6183Y-3.71
X4.697Y-3.71
T2
X4.75Y-3.35
X4.8Y-3.35
X4.85Y-3.35
T3
X4.2087Y-3.78
X4.3287Y-3.21
X4.3487Y-3.34
X4.3487Y-3.64
X4.5087Y-3.78
X4.52Y-2.9213
X4.52Y-3.0
X4.6287Y-3.21
X4.7987Y-2.88
X4.7987Y-3.18
X4.85Y-3.525
X4.85Y-3.825
T4
X4.2687Y-2.95
X4.2687Y-3.05
T5
X5.3Y-3.35
X5.5Y-3.35
T6
X4.1387Y-3.26
X4.1387Y-3.46
T7
X5.3Y-3.2
X5.3Y-3.5
M30
